Patient4_TMGait_0pt5_02_left_22_GRF.mot
version=1
nRows=71
nColumns=19
inDegrees=no
endheader
time	F1x	F1y	F1z	M1x	M1y	M1z	F2x	F2y	F2z	M2x	M2y	M2z	EC1x	EC1y	EC1z	EC2x	EC2y	EC2z
27.9	19.2495	-21.0518	7.0373	4.0504	0.045311	-28.9163	3.946	728.2421	-52.9074	260.592	47.6293	601.2447	-0.0592	0.0182	-0.0073	-0.0462	0.0165	0.9585
27.9137	12.8636	-13.1713	4.6851	2.3925	0.037149	-18.5131	-4.7713	736.3871	-54.4383	262.9332	49.7691	604.9731	-0.0592	0.0182	-0.0073	-0.0462	0.0165	0.9585
27.9274	7.5087	-6.495	2.7219	0.97099	0.025723	-9.7284	-12.3762	746.2102	-55.8287	265.7949	51.6594	609.6276	-0.0592	0.0182	-0.0073	-0.0462	0.0165	0.9585
27.9411	3.4641	-1.3927	1.2367	-0.12845	0.017279	-3.0402	-18.4617	757.1814	-56.9594	269.0241	53.171	614.8755	-0.0592	0.0182	-0.0073	-0.0462	0.0165	0.9585
27.9549	0.6796	2.1492	0.22171	-0.90172	0.0012282	1.5902	-22.9781	768.6991	-57.7497	272.4509	54.2327	620.2902	-0.0592	0.0182	-0.0073	-0.0462	0.0165	0.9585
27.9686	-1.0241	4.3351	-0.39822	-1.3827	-0.017436	4.4284	-26.0252	780.094	-58.1404	275.8867	54.789	625.3467	-0.0592	0.0182	-0.0073	-0.0462	0.0165	0.9585
27.9823	-1.9304	5.4515	-0.71289	-1.6213	-0.048606	5.8787	-27.7602	790.6397	-58.0543	279.1163	54.7693	629.4709	-0.0592	0.0182	-0.0073	-0.0462	0.0165	0.9585
27.996	-2.2797	5.7524	-0.80945	-1.6656	-0.093375	6.2963	-28.306	799.4807	-57.4112	281.8709	54.095	631.9578	-0.0592	0.0182	-0.0073	-0.0462	0.0165	0.9585
28.0097	-2.2978	5.4434	-0.75892	-1.554	-0.15966	5.9936	-27.78	805.6902	-56.1654	283.8395	52.7159	632.0771	-0.0592	0.0182	-0.0073	-0.0462	0.0165	0.9585
28.0234	-2.1524	4.6704	-0.62088	-1.3071	-0.24826	5.1985	-26.2783	808.3989	-54.3604	284.7114	50.6512	629.17	-0.0592	0.0182	-0.0073	-0.0462	0.0165	0.9585
28.0371	-1.9414	3.5108	-0.44292	-0.92955	-0.34654	4.0365	-23.8866	807.0605	-52.1439	284.2709	48.0067	622.8546	-0.0592	0.0182	-0.0073	-0.0462	0.0165	0.9585
28.0509	-1.7444	2.0248	-0.25902	-0.42593	-0.44645	2.6113	-20.6938	801.7069	-49.7224	282.4942	44.9358	613.2344	-0.0592	0.0182	-0.0073	-0.0462	0.0165	0.9585
28.0646	-1.5593	0.26737	-0.1034	0.19166	-0.51823	0.97035	-16.7885	793.0083	-47.3151	279.5798	41.6102	600.9128	-0.0592	0.0182	-0.0073	-0.0462	0.0165	0.9585
28.0783	-1.3798	-1.6402	0.0044064	0.8797	-0.54083	-0.77555	-12.3152	782.1546	-45.1125	275.9079	38.2052	586.9115	-0.0592	0.0182	-0.0073	-0.0462	0.0165	0.9585
28.092	-1.1579	-3.4534	0.02825	1.5416	-0.46754	-2.4327	-7.442	770.5442	-43.2855	271.9359	34.9019	572.3951	-0.0592	0.0182	-0.0073	-0.0462	0.0165	0.9585
28.1057	-0.82552	-4.7394	-0.059138	2.007	-0.25272	-3.6445	-2.3698	759.4792	-41.97	268.0925	31.8706	558.457	-0.0592	0.0182	-0.0073	-0.0462	0.0165	0.9585
28.1194	-0.31411	-4.7959	-0.29864	2.0038	0.16075	-3.8095	2.6819	749.9094	-41.272	264.6872	29.2705	545.9234	-0.0592	0.0182	-0.0073	-0.0462	0.0165	0.9585
28.1331	0.46919	-2.6362	-0.73291	1.1502	0.83672	-2.0999	7.5114	742.2526	-41.2376	261.8512	27.2124	535.1972	-0.0592	0.0182	-0.0073	-0.0462	0.0165	0.9585
28.1469	1.5715	3.0431	-1.4007	-1.0514	1.8223	2.6071	11.9395	736.3828	-41.8384	259.5335	25.7419	526.2705	-0.0592	0.0182	-0.0073	-0.0462	0.0165	0.9585
28.1606	3.0084	13.7528	-2.3247	-5.1762	3.1359	11.5882	15.8495	731.643	-42.97	257.51	24.8306	518.6972	-0.0592	0.0182	-0.0073	-0.0462	0.0165	0.9585
28.1743	4.7017	30.9963	-3.4667	-11.791	4.7085	26.1205	19.135	726.9755	-44.4628	255.4256	24.3983	511.7278	-0.0592	0.0182	-0.0073	-0.0462	0.0165	0.9585
28.188	6.424	55.8735	-4.7284	-21.3015	6.3654	47.1427	21.7124	721.054	-46.0972	252.8409	24.32	504.4106	-0.0592	0.0182	-0.0073	-0.0462	0.0165	0.9585
28.2017	7.749	88.4187	-5.876	-33.7012	7.743	74.6786	23.5051	712.4451	-47.6236	249.2851	24.4472	495.7106	-0.0592	0.0182	-0.0073	-0.0462	0.0165	0.9585
28.2154	7.9667	126.7045	-6.5189	-48.2278	8.2453	107.1274	24.4425	699.8162	-48.7841	244.3205	24.622	484.671	-0.0592	0.0182	-0.0073	-0.0462	0.0165	0.9585
28.2291	6.3391	165.9988	-6.0443	-63.0408	7.0858	140.5512	24.5269	682.2105	-49.3659	237.6413	24.7015	470.5799	-0.0592	0.0182	-0.0073	-0.0462	0.0165	0.9585
28.2429	2.9178	199.9189	-3.9254	-75.6744	3.8533	169.6241	23.8428	659.475	-49.2595	229.2217	24.5899	453.2698	-0.0592	0.0182	-0.0073	-0.0462	0.0165	0.9585
28.2566	-1.6261	224.8851	-0.33221	-84.7683	-1.0309	191.2932	22.6351	632.5708	-48.5101	219.421	24.2405	433.2908	-0.0592	0.0182	-0.0073	-0.0462	0.0165	0.9585
28.2703	-6.5629	242.1748	4.0876	-90.8204	-6.7192	206.5153	21.2696	603.295	-47.3103	208.8766	23.6556	411.7701	-0.0592	0.0182	-0.0073	-0.0462	0.0165	0.9585
28.284	-11.329	255.2652	8.8765	-95.1792	-12.6082	218.1252	20.1185	573.5304	-45.8507	198.2541	22.8425	389.9094	-0.0592	0.0182	-0.0073	-0.0462	0.0165	0.9585
28.2977	-15.6263	267.7928	13.5251	-99.2743	-18.1485	229.0694	19.4549	544.7634	-44.1346	188.0874	21.7241	368.6677	-0.0592	0.0182	-0.0073	-0.0462	0.0165	0.9585
28.3114	-19.3338	282.4123	17.6315	-104.1643	-22.9617	241.4787	19.3889	517.9746	-42.042	178.7306	20.2048	348.7348	-0.0592	0.0182	-0.0073	-0.0462	0.0165	0.9585
28.3251	-22.358	300.4063	20.8965	-110.3773	-26.7678	256.3189	19.9123	493.6203	-39.4332	170.35	18.2122	330.4637	-0.0592	0.0182	-0.0073	-0.0462	0.0165	0.9585
28.3389	-24.5917	321.8843	23.2332	-117.9753	-29.4583	273.6138	20.8911	471.6925	-36.2836	162.9384	15.7758	313.9184	-0.0592	0.0182	-0.0073	-0.0462	0.0165	0.9585
28.3526	-25.9236	345.99	24.7899	-126.628	-31.1253	292.6463	22.1502	451.7942	-32.7203	156.3361	13.0263	298.8896	-0.0592	0.0182	-0.0073	-0.0462	0.0165	0.9585
28.3663	-26.3133	371.0388	25.8314	-135.6835	-31.9836	312.0399	23.5083	433.2527	-28.9901	150.2744	10.1705	284.9641	-0.0592	0.0182	-0.0073	-0.0462	0.0165	0.9585
28.38	-25.89	394.9911	26.7103	-144.3517	-32.3887	330.1775	24.7797	415.2644	-25.3773	144.4345	7.438	271.6435	-0.0592	0.0182	-0.0073	-0.0462	0.0165	0.9585
28.3937	-24.8117	416.2527	27.5976	-152.0229	-32.5453	345.7919	25.8366	397.0175	-22.1306	138.4968	5.0196	258.4055	-0.0592	0.0182	-0.0073	-0.0462	0.0165	0.9585
28.4074	-23.1954	434.2856	28.6272	-158.4856	-32.6151	358.4717	26.5711	377.7718	-19.4246	132.1687	3.0536	244.7775	-0.0592	0.0182	-0.0073	-0.0462	0.0165	0.9585
28.4211	-21.1185	449.6564	29.7892	-163.9541	-32.608	368.6477	26.9141	356.8661	-17.3167	125.1938	1.5926	230.3217	-0.0592	0.0182	-0.0073	-0.0462	0.0165	0.9585
28.4349	-18.6276	463.7316	31.095	-168.9426	-32.55	377.3583	26.7881	333.7648	-15.7471	117.3716	0.6244	214.6817	-0.0592	0.0182	-0.0073	-0.0462	0.0165	0.9585
28.4486	-15.8132	478.2149	32.5156	-174.0885	-32.4369	385.9035	26.0776	308.1233	-14.5603	108.5798	0.098051	197.6358	-0.0592	0.0182	-0.0073	-0.0462	0.0165	0.9585
28.4623	-12.8172	494.7045	34.184	-179.9807	-32.4257	395.5149	24.6706	279.8776	-13.567	98.8042	-0.053456	179.1219	-0.0592	0.0182	-0.0073	-0.0462	0.0165	0.9585
28.476	-9.8386	514.4878	36.249	-187.0908	-32.6865	407.1707	22.4732	249.4188	-12.609	88.1903	0.10761	159.3756	-0.0592	0.0182	-0.0073	-0.0462	0.0165	0.9585
28.4897	-7.0601	538.4572	38.9097	-195.7418	-33.4313	421.5318	19.4937	217.5887	-11.6136	77.0426	0.53336	138.8967	-0.0592	0.0182	-0.0073	-0.0462	0.0165	0.9585
28.5034	-4.5959	566.9707	42.1814	-206.07	-34.6952	438.833	15.8522	185.547	-10.5811	65.7763	1.176	118.3883	-0.0592	0.0182	-0.0073	-0.0462	0.0165	0.9585
28.5171	-2.4853	599.7094	45.9633	-217.9724	-36.4086	458.8105	11.7856	154.5343	-9.5449	54.8362	1.9673	98.6041	-0.0592	0.0182	-0.0073	-0.0462	0.0165	0.9585
28.5309	-0.69285	635.6495	49.9958	-231.0906	-38.3554	480.6807	7.6271	125.6208	-8.5107	44.6101	2.7856	80.1857	-0.0592	0.0182	-0.0073	-0.0462	0.0165	0.9585
28.5446	0.84809	673.1219	54.0091	-244.8231	-40.3052	503.2154	3.7177	99.5133	-7.4639	35.3591	3.4992	63.5699	-0.0592	0.0182	-0.0073	-0.0462	0.0165	0.9585
28.5583	2.2349	710.0099	57.741	-258.3924	-42.0315	524.9017	0.34847	76.53	-6.3746	27.2065	3.9849	48.9522	-0.0592	0.0182	-0.0073	-0.0462	0.0165	0.9585
28.572	3.551	744.0467	61.0006	-270.9529	-43.3713	544.1831	-2.2739	56.7329	-5.2505	20.1808	4.1785	36.3791	-0.0592	0.0182	-0.0073	-0.0462	0.0165	0.9585
28.5857	4.8541	773.1327	63.6773	-281.7084	-44.2385	559.6849	-4.0046	40.0696	-4.1122	14.2672	4.0461	25.8199	-0.0592	0.0182	-0.0073	-0.0462	0.0165	0.9585
28.5994	6.1473	795.5634	65.6916	-290.0046	-44.5849	570.3588	-4.7689	26.481	-3.0075	9.4462	3.5981	17.2276	-0.0592	0.0182	-0.0073	-0.0462	0.0165	0.9585
28.6131	7.3975	810.2159	67.0204	-295.399	-44.4221	575.6051	-4.624	15.9353	-1.9968	5.707	2.8967	10.5696	-0.0592	0.0182	-0.0073	-0.0462	0.0165	0.9585
28.6269	8.556	816.6398	67.6456	-297.7014	-43.7694	575.3005	-3.8812	8.3756	-1.1534	3.0279	2.1006	5.7915	-0.0592	0.0182	-0.0073	-0.0462	0.0165	0.9585
28.6406	9.5509	815.0801	67.6292	-296.9827	-42.7201	569.7912	-2.9214	3.495	-0.52544	1.2988	1.3739	2.7028	-0.0592	0.0182	-0.0073	-0.0462	0.0165	0.9585
28.6543	10.3433	806.5133	67.042	-293.5945	-41.3579	559.8623	-1.9802	0.75201	-0.096866	0.32986	0.78122	0.96656	-0.0592	0.0182	-0.0073	-0.0462	0.0165	0.9585
28.668	10.9263	792.5556	66.028	-288.1331	-39.8087	546.6672	-1.1785	-0.45006	0.16023	-0.089326	0.34502	0.20346	-0.0592	0.0182	-0.0073	-0.0462	0.0165	0.9585
28.6817	11.3745	775.2197	64.745	-281.3515	-38.1727	531.5391	-0.57785	-0.63123	0.29374	-0.14397	0.049498	0.092705	-0.0592	0.0182	-0.0073	-0.0462	0.0165	0.9585
28.6954	11.7975	756.6544	63.3685	-274.0617	-36.5412	515.8338	-0.17144	-0.23386	0.33402	0.010238	-0.12503	0.34433	-0.0592	0.0182	-0.0073	-0.0462	0.0165	0.9585
28.7091	12.3178	738.9204	62.0438	-267.0467	-34.9704	500.8015	0.054135	0.42462	0.3159	0.25881	-0.19909	0.76753	-0.0592	0.0182	-0.0073	-0.0462	0.0165	0.9585
28.7229	13.063	723.7656	60.8777	-260.9747	-33.4825	487.4581	0.1376	1.1048	0.25339	0.51471	-0.18553	1.2065	-0.0592	0.0182	-0.0073	-0.0462	0.0165	0.9585
28.7366	14.1192	712.4775	59.937	-256.3383	-32.0824	476.5295	0.11267	1.6391	0.16479	0.71479	-0.10717	1.5454	-0.0592	0.0182	-0.0073	-0.0462	0.0165	0.9585
28.7503	15.5605	705.8064	59.2563	-253.4266	-30.7588	468.4	0.0021742	1.9026	0.05751	0.80957	0.022498	1.691	-0.0592	0.0182	-0.0073	-0.0462	0.0165	0.9585
28.764	17.419	703.9986	58.8475	-252.3363	-29.4965	463.1514	-0.15958	1.789	-0.061904	0.7573	0.18493	1.5459	-0.0592	0.0182	-0.0073	-0.0462	0.0165	0.9585
28.7777	19.7154	706.8659	58.694	-252.9963	-28.2639	460.6201	-0.35466	1.2206	-0.18902	0.52424	0.36445	1.048	-0.0592	0.0182	-0.0073	-0.0462	0.0165	0.9585
28.7914	22.454	713.8501	58.7736	-255.1928	-27.0329	460.4352	-0.54439	0.13541	-0.31982	0.085612	0.54248	0.14485	-0.0592	0.0182	-0.0073	-0.0462	0.0165	0.9585
28.8051	25.5903	724.0966	59.057	-258.5937	-25.7923	462.0923	-0.67715	-1.4848	-0.43778	-0.56618	0.68774	-1.1778	-0.0592	0.0182	-0.0073	-0.0462	0.0165	0.9585
28.8189	29.0387	736.4792	59.513	-262.7643	-24.5449	464.9507	-0.68296	-3.5765	-0.5215	-1.4051	0.75734	-2.8672	-0.0592	0.0182	-0.0073	-0.0462	0.0165	0.9585
28.8326	32.6553	749.6828	60.1103	-267.1955	-23.3144	468.3052	-0.4576	-5.9329	-0.52761	-2.3478	0.67474	-4.7595	-0.0592	0.0182	-0.0073	-0.0462	0.0165	0.9585
28.8463	36.283	762.2889	60.7846	-271.3442	-22.1086	471.4064	0.11751	-8.1138	-0.40724	-3.2176	0.35012	-6.508	-0.0592	0.0182	-0.0073	-0.0462	0.0165	0.9585
28.86	39.7683	772.869	61.4657	-274.677	-20.9366	473.4921	1.1861	-9.3808	-0.089124	-3.716	-0.33359	-7.5372	-0.0592	0.0182	-0.0073	-0.0462	0.0165	0.9585
